<svg width="154" height="25" viewBox="0 0 154 25" fill="none" xmlns="http://www.w3.org/2000/svg">
<path d="M0 0H12.5002C19.4039 0 25.0005 5.59655 25.0005 12.5002V12.5002C25.0005 19.4039 19.4039 25.0005 12.5002 25.0005V25.0005C5.59655 25.0005 0 19.4039 0 12.5002V0Z" fill="#0363F3"/>
<g clip-path="url(#clip0)">
<path d="M11.1537 16.7524C11.0439 16.8628 10.8941 16.9244 10.7385 16.9244C10.5829 16.9244 10.4332 16.8628 10.3234 16.7524L7.00805 13.4365C6.66398 13.0924 6.66398 12.5345 7.00805 12.1911L7.42318 11.7759C7.76735 11.4318 8.32462 11.4318 8.66868 11.7759L10.7385 13.8458L16.3316 8.25267C16.6757 7.90861 17.2335 7.90861 17.5771 8.25267L17.9922 8.66791C18.3363 9.01197 18.3363 9.56978 17.9922 9.9133L11.1537 16.7524Z" fill="white"/>
</g>
<path d="M34.422 18.9995V6.21951H39.318C40.482 6.21951 41.424 6.57951 42.144 7.29951C42.876 8.01951 43.242 8.91951 43.242 9.99951C43.242 11.6795 42.366 12.7895 40.614 13.3295L45.204 18.9995H42.054L37.662 13.6175H37.032V18.9995H34.422ZM37.032 11.3855H39.012C39.516 11.3855 39.912 11.2655 40.2 11.0255C40.5 10.7735 40.65 10.4315 40.65 9.99951C40.65 9.56751 40.5 9.23151 40.2 8.99151C39.912 8.73951 39.516 8.61351 39.012 8.61351H37.032V11.3855ZM46.0545 18.9995V6.21951H54.0105V8.70351H48.6645V11.3315H52.9305V13.8155H48.6645V16.5155H54.0105V18.9995H46.0545ZM60.011 18.9995L54.737 6.21951H57.563L61.181 15.0935L64.745 6.21951H67.625L62.333 18.9995H60.011ZM68.8976 18.9995V6.21951H71.5076V18.9995H68.8976ZM78.2708 19.2155C76.8188 19.2155 75.6488 18.8015 74.7608 17.9735C73.8728 17.1335 73.4048 16.1555 73.3568 15.0395H75.9668C76.0628 15.6035 76.3208 16.0415 76.7408 16.3535C77.1608 16.6535 77.6708 16.8035 78.2708 16.8035C78.8108 16.8035 79.2488 16.6895 79.5848 16.4615C79.9208 16.2215 80.0888 15.9035 80.0888 15.5075C80.0888 14.7995 79.5188 14.2835 78.3788 13.9595L77.0288 13.5635C75.9848 13.2635 75.1688 12.7955 74.5808 12.1595C73.9928 11.5235 73.6928 10.7315 73.6808 9.78351C73.6808 8.61951 74.0708 7.70151 74.8508 7.02951C75.6308 6.34551 76.6688 6.00351 77.9648 6.00351C79.2728 6.00351 80.3348 6.39951 81.1508 7.19151C81.9668 7.97151 82.3988 8.87151 82.4468 9.89151H79.8548C79.7228 9.38751 79.4828 9.01551 79.1348 8.77551C78.7868 8.53551 78.3968 8.41551 77.9648 8.41551C77.4848 8.41551 77.0888 8.52351 76.7768 8.73951C76.4768 8.94351 76.3208 9.23151 76.3088 9.60351C76.2968 9.98751 76.4228 10.2995 76.6868 10.5395C76.9508 10.7795 77.3588 10.9775 77.9108 11.1335L79.4048 11.5475C81.6128 12.1595 82.7168 13.4495 82.7168 15.4175C82.7168 16.5215 82.3028 17.4335 81.4748 18.1535C80.6588 18.8615 79.5908 19.2155 78.2708 19.2155ZM84.6568 18.9995V6.21951H87.2668V18.9995H84.6568ZM92.95 15.5075C93.73 16.2995 94.672 16.6955 95.776 16.6955C96.88 16.6955 97.816 16.2995 98.584 15.5075C99.364 14.7035 99.754 13.7375 99.754 12.6095C99.754 11.4815 99.364 10.5215 98.584 9.72951C97.816 8.92551 96.88 8.52351 95.776 8.52351C94.672 8.52351 93.73 8.92551 92.95 9.72951C92.182 10.5215 91.798 11.4815 91.798 12.6095C91.798 13.7375 92.182 14.7035 92.95 15.5075ZM100.438 17.2895C99.154 18.5735 97.6 19.2155 95.776 19.2155C93.952 19.2155 92.392 18.5735 91.096 17.2895C89.812 15.9935 89.17 14.4335 89.17 12.6095C89.17 10.7855 89.812 9.23151 91.096 7.94751C92.392 6.65151 93.952 6.00351 95.776 6.00351C97.6 6.00351 99.154 6.65151 100.438 7.94751C101.734 9.23151 102.382 10.7855 102.382 12.6095C102.382 14.4335 101.734 15.9935 100.438 17.2895ZM115.695 18.9995H113.445L106.893 10.6655V18.9995H104.283V6.21951H106.533L113.085 14.5535V6.21951H115.695V18.9995ZM116.955 18.9995L122.463 6.21951H124.785L130.311 18.9995H127.575L126.333 16.0835H120.879L119.655 18.9995H116.955ZM123.615 9.65751L121.851 13.7975H125.361L123.615 9.65751ZM131.556 18.9995V6.21951H136.452C137.616 6.21951 138.558 6.57951 139.278 7.29951C140.01 8.01951 140.376 8.91951 140.376 9.99951C140.376 11.6795 139.5 12.7895 137.748 13.3295L142.338 18.9995H139.188L134.796 13.6175H134.166V18.9995H131.556ZM134.166 11.3855H136.146C136.65 11.3855 137.046 11.2655 137.334 11.0255C137.634 10.7735 137.784 10.4315 137.784 9.99951C137.784 9.56751 137.634 9.23151 137.334 8.99151C137.046 8.73951 136.65 8.61351 136.146 8.61351H134.166V11.3855ZM145.748 18.9995V13.6175L141.032 6.21951H144.056L147.044 11.0615L150.05 6.21951H153.092L148.358 13.6355V18.9995H145.748Z" fill="#010E28"/>
<defs>
<clipPath id="clip0">
<rect width="11.5003" height="11.5002" fill="white" transform="translate(6.75 6.70605)"/>
</clipPath>
</defs>
</svg>
