<svg width="151" height="28" viewBox="0 0 151 28" fill="none" xmlns="http://www.w3.org/2000/svg">
<path d="M0 0H14C21.732 0 28 6.26801 28 14C28 21.732 21.732 28 14 28C6.26801 28 0 21.732 0 14V0Z" fill="#0363F3"/>
<g clip-path="url(#clip0)">
<path d="M12.4906 18.7621C12.3676 18.8857 12.1999 18.9547 12.0257 18.9547C11.8514 18.9547 11.6837 18.8857 11.5607 18.7621L7.8476 15.0484C7.46226 14.663 7.46226 14.0382 7.8476 13.6536L8.31254 13.1885C8.698 12.8032 9.32213 12.8032 9.70747 13.1885L12.0257 15.5068L18.2897 9.24262C18.6752 8.85728 19.2999 8.85728 19.6847 9.24262L20.1496 9.70768C20.5349 10.093 20.5349 10.7177 20.1496 11.1025L12.4906 18.7621Z" fill="white"/>
</g>
<path d="M40.343 20V7.93H44.967C46.0663 7.93 46.956 8.27 47.636 8.95C48.3273 9.63 48.673 10.48 48.673 11.5C48.673 13.0867 47.8457 14.135 46.191 14.645L50.526 20H47.551L43.403 14.917H42.808V20H40.343ZM42.808 12.809H44.678C45.154 12.809 45.528 12.6957 45.8 12.469C46.0833 12.231 46.225 11.908 46.225 11.5C46.225 11.092 46.0833 10.7747 45.8 10.548C45.528 10.31 45.154 10.191 44.678 10.191H42.808V12.809ZM51.1592 20V7.93H58.6733V10.276H53.6242V12.758H57.6533V15.104H53.6242V17.654H58.6733V20H51.1592ZM64.1704 20L59.1894 7.93H61.8584L65.2754 16.311L68.6414 7.93H71.3614L66.3634 20H64.1704ZM72.3933 20V7.93H74.8583V20H72.3933ZM81.0758 20.204C79.7045 20.204 78.5995 19.813 77.7608 19.031C76.9221 18.2377 76.4801 17.314 76.4348 16.26H78.8998C78.9905 16.7927 79.2341 17.2063 79.6308 17.501C80.0275 17.7843 80.5091 17.926 81.0758 17.926C81.5858 17.926 81.9995 17.8183 82.3168 17.603C82.6341 17.3763 82.7928 17.076 82.7928 16.702C82.7928 16.0333 82.2545 15.546 81.1778 15.24L79.9028 14.866C78.9168 14.5827 78.1461 14.1407 77.5908 13.54C77.0355 12.9393 76.7521 12.1913 76.7408 11.296C76.7408 10.1967 77.1091 9.32967 77.8458 8.695C78.5825 8.049 79.5628 7.726 80.7868 7.726C82.0221 7.726 83.0251 8.1 83.7958 8.848C84.5665 9.58467 84.9745 10.4347 85.0198 11.398H82.5718C82.4471 10.922 82.2205 10.5707 81.8918 10.344C81.5631 10.1173 81.1948 10.004 80.7868 10.004C80.3335 10.004 79.9595 10.106 79.6648 10.31C79.3815 10.5027 79.2341 10.7747 79.2228 11.126C79.2115 11.4887 79.3305 11.7833 79.5798 12.01C79.8291 12.2367 80.2145 12.4237 80.7358 12.571L82.1468 12.962C84.2321 13.54 85.2748 14.7583 85.2748 16.617C85.2748 17.6597 84.8838 18.521 84.1018 19.201C83.3311 19.8697 82.3225 20.204 81.0758 20.204ZM86.9369 20V7.93H89.4019V20H86.9369ZM94.5994 16.702C95.3361 17.45 96.2258 17.824 97.2684 17.824C98.3111 17.824 99.1951 17.45 99.9204 16.702C100.657 15.9427 101.025 15.0303 101.025 13.965C101.025 12.8997 100.657 11.993 99.9204 11.245C99.1951 10.4857 98.3111 10.106 97.2684 10.106C96.2258 10.106 95.3361 10.4857 94.5994 11.245C93.8741 11.993 93.5114 12.8997 93.5114 13.965C93.5114 15.0303 93.8741 15.9427 94.5994 16.702ZM101.671 18.385C100.459 19.5977 98.9911 20.204 97.2684 20.204C95.5458 20.204 94.0724 19.5977 92.8484 18.385C91.6358 17.161 91.0294 15.6877 91.0294 13.965C91.0294 12.2423 91.6358 10.7747 92.8484 9.562C94.0724 8.338 95.5458 7.726 97.2684 7.726C98.9911 7.726 100.459 8.338 101.671 9.562C102.895 10.7747 103.507 12.2423 103.507 13.965C103.507 15.6877 102.895 17.161 101.671 18.385ZM115.911 20H113.786L107.598 12.129V20H105.133V7.93H107.258L113.446 15.801V7.93H115.911V20ZM116.931 20L122.133 7.93H124.326L129.545 20H126.961L125.788 17.246H120.637L119.481 20H116.931ZM123.221 11.177L121.555 15.087H124.87L123.221 11.177ZM130.551 20V7.93H135.175C136.274 7.93 137.164 8.27 137.844 8.95C138.535 9.63 138.881 10.48 138.881 11.5C138.881 13.0867 138.053 14.135 136.399 14.645L140.734 20H137.759L133.611 14.917H133.016V20H130.551ZM133.016 12.809H134.886C135.362 12.809 135.736 12.6957 136.008 12.469C136.291 12.231 136.433 11.908 136.433 11.5C136.433 11.092 136.291 10.7747 136.008 10.548C135.736 10.31 135.362 10.191 134.886 10.191H133.016V12.809ZM143.785 20V14.917L139.331 7.93H142.187L145.009 12.503L147.848 7.93H150.721L146.25 14.934V20H143.785Z" fill="white"/>
<defs>
<clipPath id="clip0">
<rect x="7.55859" y="7.51074" width="12.88" height="12.88" fill="white"/>
</clipPath>
</defs>
</svg>
