<svg width="187" height="221" viewBox="0 0 187 221" fill="none" xmlns="http://www.w3.org/2000/svg">
<line x1="1.5" y1="-1.5" x2="218.504" y2="-1.5" transform="matrix(0.00685966 0.999976 -0.999985 0.00555457 0 1)" stroke="white" stroke-opacity="0.39" stroke-width="3" stroke-linecap="round" stroke-linejoin="round" stroke-dasharray="0.1 14"/>
<line x1="1.5" y1="-1.5" x2="218.504" y2="-1.5" transform="matrix(0.00685966 0.999976 -0.999985 0.00555457 76 1)" stroke="white" stroke-opacity="0.39" stroke-width="3" stroke-linecap="round" stroke-linejoin="round" stroke-dasharray="0.1 14"/>
<line x1="1.5" y1="-1.5" x2="218.504" y2="-1.5" transform="matrix(0.00620638 0.999981 -0.999981 0.00613924 16 1)" stroke="white" stroke-opacity="0.39" stroke-width="3" stroke-linecap="round" stroke-linejoin="round" stroke-dasharray="0.1 14"/>
<line x1="1.5" y1="-1.5" x2="218.504" y2="-1.5" transform="matrix(0.00620638 0.999981 -0.999981 0.00613924 92 1)" stroke="white" stroke-opacity="0.39" stroke-width="3" stroke-linecap="round" stroke-linejoin="round" stroke-dasharray="0.1 14"/>
<line x1="1.5" y1="-1.5" x2="218.504" y2="-1.5" transform="matrix(0.00620638 0.999981 -0.999981 0.00613924 31 1)" stroke="white" stroke-opacity="0.39" stroke-width="3" stroke-linecap="round" stroke-linejoin="round" stroke-dasharray="0.1 14"/>
<line x1="1.5" y1="-1.5" x2="218.504" y2="-1.5" transform="matrix(0.00620638 0.999981 -0.999981 0.00613924 107 1)" stroke="white" stroke-opacity="0.39" stroke-width="3" stroke-linecap="round" stroke-linejoin="round" stroke-dasharray="0.1 14"/>
<line x1="1.5" y1="-1.5" x2="218.504" y2="-1.5" transform="matrix(0.00620638 0.999981 -0.999981 0.00613924 152 1)" stroke="white" stroke-opacity="0.39" stroke-width="3" stroke-linecap="round" stroke-linejoin="round" stroke-dasharray="0.1 14"/>
<line x1="1.5" y1="-1.5" x2="218.504" y2="-1.5" transform="matrix(0.00620638 0.999981 -0.999981 0.00613924 46 1)" stroke="white" stroke-opacity="0.39" stroke-width="3" stroke-linecap="round" stroke-linejoin="round" stroke-dasharray="0.1 14"/>
<line x1="1.5" y1="-1.5" x2="218.504" y2="-1.5" transform="matrix(0.00620638 0.999981 -0.999981 0.00613924 122 1)" stroke="white" stroke-opacity="0.39" stroke-width="3" stroke-linecap="round" stroke-linejoin="round" stroke-dasharray="0.1 14"/>
<line x1="1.5" y1="-1.5" x2="218.504" y2="-1.5" transform="matrix(0.00620638 0.999981 -0.999981 0.00613924 167 1)" stroke="white" stroke-opacity="0.39" stroke-width="3" stroke-linecap="round" stroke-linejoin="round" stroke-dasharray="0.1 14"/>
<line x1="1.5" y1="-1.5" x2="218.504" y2="-1.5" transform="matrix(0.00620638 0.999981 -0.999981 0.00613924 61 1)" stroke="white" stroke-opacity="0.39" stroke-width="3" stroke-linecap="round" stroke-linejoin="round" stroke-dasharray="0.1 14"/>
<line x1="1.5" y1="-1.5" x2="218.504" y2="-1.5" transform="matrix(0.00620638 0.999981 -0.999981 0.00613924 137 1)" stroke="white" stroke-opacity="0.39" stroke-width="3" stroke-linecap="round" stroke-linejoin="round" stroke-dasharray="0.1 14"/>
<line x1="1.5" y1="-1.5" x2="218.504" y2="-1.5" transform="matrix(0.00620638 0.999981 -0.999981 0.00613924 182 1)" stroke="white" stroke-opacity="0.39" stroke-width="3" stroke-linecap="round" stroke-linejoin="round" stroke-dasharray="0.1 14"/>
</svg>
