<svg width="290" height="22" viewBox="0 0 290 22" fill="none" xmlns="http://www.w3.org/2000/svg">
<path d="M5 17L33.982 6.23525C37.8444 4.80067 42.1112 4.91134 45.894 6.54421L64.3463 14.5093C68.055 16.1102 72.2321 16.2491 76.0389 14.8979L101.507 5.85891C104.899 4.65492 108.598 4.62999 112.006 5.78815L140.523 15.4787L145 17" stroke="#0363F3" stroke-width="9" stroke-linecap="round"/>
<path d="M145 17L173.982 6.23525C177.844 4.80067 182.111 4.91134 185.894 6.54421L204.346 14.5093C208.055 16.1102 212.232 16.2491 216.039 14.8979L241.507 5.85891C244.899 4.65492 248.598 4.62999 252.006 5.78815L280.523 15.4787L285 17" stroke="#0363F3" stroke-width="9" stroke-linecap="round"/>
</svg>
